# xmcd
#
# Track frame offsets:
#	150
#	20885
#	34128
#	45774
#	61669
#	83883
#	94998
#	107680
#	124708
#	138519
#
# Disc length: 2002 seconds
#
# Revision: 0
# Processed by: cddbd v1.4PL0 Copyright (c) Steve Scherf et al.
# Submitted via: audiograbber 1.81.03
#
DISCID=7d07d00a
DTITLE=Aaron Tippin - Call Of The Wild
DYEAR=1993
DGENRE=Country
TTITLE0=The Call Of The Wild
TTITLE1=Honky-Tonk Superman
TTITLE2=Nothin' In The World
TTITLE3=Working Man's PH.D.
TTITLE4=I Promosed You The World
TTITLE5=When Country Took The Throne
TTITLE6=Let's Talk About You
TTITLE7=Whole Lotta Love On The Line
TTITLE8=My Kind Of Town
TTITLE9=Trim Yourself To Fit The World
EXTD=
EXTT0=
EXTT1=
EXTT2=
EXTT3=
EXTT4=
EXTT5=
EXTT6=
EXTT7=
EXTT8=
EXTT9=
PLAYORDER=
